<mxfile host="app.diagrams.net" modified="2023-04-12T15:00:38.806Z" agent="Mozilla/5.0 (X11; Linux x86_64) AppleWebKit/537.36 (KHTML, like Gecko) Chrome/111.0.0.0 Safari/537.36" etag="7GsVvz2qb8YLlXdP3Zbe" version="21.1.5" type="device">
  <diagram name="Page-1" id="RukCnHgr3DPXX3_ZsLxG">
    <mxGraphModel dx="1659" dy="880" grid="1" gridSize="10" guides="1" tooltips="1" connect="1" arrows="1" fold="1" page="1" pageScale="1" pageWidth="850" pageHeight="1100" math="0" shadow="0">
      <root>
        <mxCell id="0" />
        <mxCell id="1" parent="0" />
        <mxCell id="44RmBdanAyZZInN4wUpM-1" value="&lt;font style=&quot;&quot; data-font-src=&quot;https://fonts.googleapis.com/css?family=IBM+Plex+Sans&quot;&gt;&lt;font data-font-src=&quot;https://fonts.googleapis.com/css?family=JetBrains+Mono&quot; face=&quot;JetBrains Mono&quot;&gt;alvmhost&lt;br&gt;&lt;span style=&quot;font-weight: normal;&quot;&gt;(Arch Linux Virtual Machine Host)&lt;/span&gt;&lt;/font&gt;&lt;br&gt;&lt;/font&gt;" style="swimlane;whiteSpace=wrap;html=1;startSize=40;labelBackgroundColor=none;rounded=1;" parent="1" vertex="1">
          <mxGeometry x="40" y="280" width="360" height="390" as="geometry" />
        </mxCell>
        <mxCell id="44RmBdanAyZZInN4wUpM-9" value="&lt;font data-font-src=&quot;https://fonts.googleapis.com/css?family=JetBrains+Mono&quot; face=&quot;JetBrains Mono&quot;&gt;CentOS 9 Stream&lt;br&gt;&lt;/font&gt;" style="swimlane;horizontal=0;whiteSpace=wrap;html=1;labelBackgroundColor=none;rounded=1;" parent="44RmBdanAyZZInN4wUpM-1" vertex="1">
          <mxGeometry x="10" y="50" width="340" height="160" as="geometry" />
        </mxCell>
        <mxCell id="44RmBdanAyZZInN4wUpM-7" value="&lt;font face=&quot;JetBrains Mono&quot; data-font-src=&quot;https://fonts.googleapis.com/css?family=JetBrains+Mono&quot;&gt;&lt;font style=&quot;&quot; data-font-src=&quot;https://fonts.googleapis.com/css?family=IBM+Plex+Sans&quot;&gt;&lt;b style=&quot;&quot;&gt;centvirt-slvc&lt;/b&gt;&amp;nbsp;&lt;/font&gt;(CentOS 9 Stream SLVC)&lt;/font&gt;" style="rounded=1;whiteSpace=wrap;html=1;labelBackgroundColor=none;" parent="44RmBdanAyZZInN4wUpM-9" vertex="1">
          <mxGeometry x="30" y="100" width="300" height="20" as="geometry" />
        </mxCell>
        <mxCell id="44RmBdanAyZZInN4wUpM-8" value="&lt;font face=&quot;JetBrains Mono&quot; data-font-src=&quot;https://fonts.googleapis.com/css?family=JetBrains+Mono&quot;&gt;&lt;font style=&quot;&quot; data-font-src=&quot;https://fonts.googleapis.com/css?family=IBM+Plex+Sans&quot;&gt;&lt;b style=&quot;&quot;&gt;centvirt-slvd&lt;/b&gt;&amp;nbsp;&lt;/font&gt;(CentOS 9 Stream SLVD)&lt;/font&gt;" style="rounded=1;whiteSpace=wrap;html=1;labelBackgroundColor=none;" parent="44RmBdanAyZZInN4wUpM-9" vertex="1">
          <mxGeometry x="30" y="130" width="300" height="20" as="geometry" />
        </mxCell>
        <mxCell id="44RmBdanAyZZInN4wUpM-6" value="&lt;font face=&quot;JetBrains Mono&quot; data-font-src=&quot;https://fonts.googleapis.com/css?family=JetBrains+Mono&quot;&gt;&lt;font style=&quot;&quot; data-font-src=&quot;https://fonts.googleapis.com/css?family=IBM+Plex+Sans&quot;&gt;&lt;b style=&quot;&quot;&gt;centvirt-slvb&lt;/b&gt;&amp;nbsp;&lt;/font&gt;(CentOS 9 Stream SLVB)&lt;/font&gt;" style="rounded=1;whiteSpace=wrap;html=1;labelBackgroundColor=none;" parent="44RmBdanAyZZInN4wUpM-9" vertex="1">
          <mxGeometry x="30" y="70" width="300" height="20" as="geometry" />
        </mxCell>
        <mxCell id="44RmBdanAyZZInN4wUpM-5" value="&lt;font face=&quot;JetBrains Mono&quot; data-font-src=&quot;https://fonts.googleapis.com/css?family=JetBrains+Mono&quot;&gt;&lt;font style=&quot;&quot; data-font-src=&quot;https://fonts.googleapis.com/css?family=IBM+Plex+Sans&quot;&gt;&lt;b style=&quot;&quot;&gt;centvirt-slva&lt;/b&gt;&amp;nbsp;&lt;/font&gt;(CentOS 9 Stream SLVA)&lt;/font&gt;" style="rounded=1;whiteSpace=wrap;html=1;labelBackgroundColor=none;" parent="44RmBdanAyZZInN4wUpM-9" vertex="1">
          <mxGeometry x="30" y="40" width="300" height="20" as="geometry" />
        </mxCell>
        <mxCell id="44RmBdanAyZZInN4wUpM-4" value="&lt;font face=&quot;JetBrains Mono&quot; data-font-src=&quot;https://fonts.googleapis.com/css?family=JetBrains+Mono&quot;&gt;&lt;font style=&quot;&quot; data-font-src=&quot;https://fonts.googleapis.com/css?family=IBM+Plex+Sans&quot;&gt;&lt;b style=&quot;&quot;&gt;centvirt-main&lt;/b&gt; &lt;/font&gt;(CentOS 9 Stream MAIN)&lt;/font&gt;" style="rounded=1;whiteSpace=wrap;html=1;labelBackgroundColor=none;" parent="44RmBdanAyZZInN4wUpM-9" vertex="1">
          <mxGeometry x="30" y="10" width="300" height="20" as="geometry" />
        </mxCell>
        <mxCell id="44RmBdanAyZZInN4wUpM-16" value="&lt;font data-font-src=&quot;https://fonts.googleapis.com/css?family=JetBrains+Mono&quot; face=&quot;JetBrains Mono&quot;&gt;RHEL 9&lt;br&gt;&lt;/font&gt;" style="swimlane;horizontal=0;whiteSpace=wrap;html=1;labelBackgroundColor=none;rounded=1;" parent="44RmBdanAyZZInN4wUpM-1" vertex="1">
          <mxGeometry x="10" y="220" width="340" height="160" as="geometry" />
        </mxCell>
        <mxCell id="44RmBdanAyZZInN4wUpM-20" value="&lt;font face=&quot;JetBrains Mono&quot; data-font-src=&quot;https://fonts.googleapis.com/css?family=JetBrains+Mono&quot;&gt;&lt;font style=&quot;&quot; data-font-src=&quot;https://fonts.googleapis.com/css?family=IBM+Plex+Sans&quot;&gt;&lt;b style=&quot;&quot;&gt;rhelvirt-slva&lt;/b&gt;&amp;nbsp;&lt;/font&gt;(RHEL 9 SLVA)&lt;/font&gt;" style="rounded=1;whiteSpace=wrap;html=1;labelBackgroundColor=none;" parent="44RmBdanAyZZInN4wUpM-16" vertex="1">
          <mxGeometry x="30" y="40" width="300" height="20" as="geometry" />
        </mxCell>
        <mxCell id="44RmBdanAyZZInN4wUpM-21" value="&lt;font face=&quot;JetBrains Mono&quot; data-font-src=&quot;https://fonts.googleapis.com/css?family=JetBrains+Mono&quot;&gt;&lt;font style=&quot;&quot; data-font-src=&quot;https://fonts.googleapis.com/css?family=IBM+Plex+Sans&quot;&gt;&lt;b style=&quot;&quot;&gt;rhelvirt-main&lt;/b&gt; &lt;/font&gt;(RHEL 9 MAIN)&lt;/font&gt;" style="rounded=1;whiteSpace=wrap;html=1;labelBackgroundColor=none;" parent="44RmBdanAyZZInN4wUpM-16" vertex="1">
          <mxGeometry x="30" y="10" width="300" height="20" as="geometry" />
        </mxCell>
        <mxCell id="44RmBdanAyZZInN4wUpM-22" value="&lt;font face=&quot;JetBrains Mono&quot; data-font-src=&quot;https://fonts.googleapis.com/css?family=JetBrains+Mono&quot;&gt;&lt;font style=&quot;&quot; data-font-src=&quot;https://fonts.googleapis.com/css?family=IBM+Plex+Sans&quot;&gt;&lt;b style=&quot;&quot;&gt;rhelvirt-slvb&lt;/b&gt;&amp;nbsp;&lt;/font&gt;(RHEL 9 SLVB)&lt;/font&gt;" style="rounded=1;whiteSpace=wrap;html=1;labelBackgroundColor=none;" parent="44RmBdanAyZZInN4wUpM-16" vertex="1">
          <mxGeometry x="30" y="70" width="300" height="20" as="geometry" />
        </mxCell>
        <mxCell id="44RmBdanAyZZInN4wUpM-23" value="&lt;font face=&quot;JetBrains Mono&quot; data-font-src=&quot;https://fonts.googleapis.com/css?family=JetBrains+Mono&quot;&gt;&lt;font style=&quot;&quot; data-font-src=&quot;https://fonts.googleapis.com/css?family=IBM+Plex+Sans&quot;&gt;&lt;b style=&quot;&quot;&gt;rhelvirt-slvc&lt;/b&gt;&amp;nbsp;&lt;/font&gt;(RHEL 9 SLVC)&lt;/font&gt;" style="rounded=1;whiteSpace=wrap;html=1;labelBackgroundColor=none;" parent="44RmBdanAyZZInN4wUpM-16" vertex="1">
          <mxGeometry x="30" y="100" width="300" height="20" as="geometry" />
        </mxCell>
        <mxCell id="44RmBdanAyZZInN4wUpM-24" value="&lt;font face=&quot;JetBrains Mono&quot; data-font-src=&quot;https://fonts.googleapis.com/css?family=JetBrains+Mono&quot;&gt;&lt;font style=&quot;&quot; data-font-src=&quot;https://fonts.googleapis.com/css?family=IBM+Plex+Sans&quot;&gt;&lt;b style=&quot;&quot;&gt;rhelvirt-slvd&lt;/b&gt;&amp;nbsp;&lt;/font&gt;(RHEL 9 SLVD)&lt;/font&gt;" style="rounded=1;whiteSpace=wrap;html=1;labelBackgroundColor=none;" parent="44RmBdanAyZZInN4wUpM-16" vertex="1">
          <mxGeometry x="30" y="130" width="300" height="20" as="geometry" />
        </mxCell>
        <mxCell id="GhL4nBobYUIvh9j1_4Rl-1" value="" style="html=1;verticalLabelPosition=bottom;align=center;labelBackgroundColor=none;verticalAlign=top;strokeWidth=2;shadow=0;dashed=0;shape=mxgraph.ios7.icons.home;" vertex="1" parent="44RmBdanAyZZInN4wUpM-1">
          <mxGeometry x="10" y="10" width="20" height="20" as="geometry" />
        </mxCell>
        <mxCell id="GhL4nBobYUIvh9j1_4Rl-99" style="edgeStyle=orthogonalEdgeStyle;shape=link;rounded=0;orthogonalLoop=1;jettySize=auto;html=1;exitX=0.5;exitY=0;exitDx=0;exitDy=0;entryX=0.5;entryY=1;entryDx=0;entryDy=0;labelBackgroundColor=none;fontColor=default;" edge="1" parent="1" source="44RmBdanAyZZInN4wUpM-27" target="44RmBdanAyZZInN4wUpM-127">
          <mxGeometry relative="1" as="geometry" />
        </mxCell>
        <mxCell id="GhL4nBobYUIvh9j1_4Rl-104" style="edgeStyle=orthogonalEdgeStyle;shape=link;rounded=0;orthogonalLoop=1;jettySize=auto;html=1;exitX=0.5;exitY=1;exitDx=0;exitDy=0;entryX=0.5;entryY=0;entryDx=0;entryDy=0;labelBackgroundColor=none;fontColor=default;" edge="1" parent="1" source="44RmBdanAyZZInN4wUpM-27" target="44RmBdanAyZZInN4wUpM-171">
          <mxGeometry relative="1" as="geometry" />
        </mxCell>
        <mxCell id="44RmBdanAyZZInN4wUpM-27" value="&lt;font data-font-src=&quot;https://fonts.googleapis.com/css?family=JetBrains+Mono&quot; face=&quot;JetBrains Mono&quot;&gt;&lt;b&gt;TP-Link Archer C80&lt;br&gt;&lt;/b&gt;(Router)&lt;/font&gt;" style="rounded=1;whiteSpace=wrap;html=1;labelBackgroundColor=none;" parent="1" vertex="1">
          <mxGeometry x="1190" y="590" width="200" height="40" as="geometry" />
        </mxCell>
        <mxCell id="44RmBdanAyZZInN4wUpM-37" value="&lt;font data-font-src=&quot;https://fonts.googleapis.com/css?family=JetBrains+Mono&quot; face=&quot;JetBrains Mono&quot;&gt;Realtek RTL8111/8168/8411 1G Ethernet&lt;br&gt;&lt;span style=&quot;font-weight: normal;&quot;&gt;(Network Interface Device)&lt;/span&gt;&lt;/font&gt;" style="swimlane;whiteSpace=wrap;html=1;startSize=40;labelBackgroundColor=none;rounded=1;" parent="1" vertex="1">
          <mxGeometry x="770" y="470" width="360" height="200" as="geometry" />
        </mxCell>
        <mxCell id="GhL4nBobYUIvh9j1_4Rl-97" style="edgeStyle=orthogonalEdgeStyle;shape=link;rounded=0;orthogonalLoop=1;jettySize=auto;html=1;exitX=0.5;exitY=0;exitDx=0;exitDy=0;entryX=0.5;entryY=1;entryDx=0;entryDy=0;labelBackgroundColor=none;fontColor=default;" edge="1" parent="44RmBdanAyZZInN4wUpM-37" source="44RmBdanAyZZInN4wUpM-39" target="GhL4nBobYUIvh9j1_4Rl-95">
          <mxGeometry relative="1" as="geometry" />
        </mxCell>
        <mxCell id="44RmBdanAyZZInN4wUpM-39" value="&lt;font data-font-src=&quot;https://fonts.googleapis.com/css?family=JetBrains+Mono&quot; face=&quot;JetBrains Mono&quot;&gt;&lt;span style=&quot;border-color: var(--border-color);&quot;&gt;&lt;b&gt;overpass-mstr&lt;br&gt;&lt;/b&gt;&lt;/span&gt;(bridge00/bridge)&lt;br&gt;&lt;/font&gt;" style="rounded=1;whiteSpace=wrap;html=1;labelBackgroundColor=none;" parent="44RmBdanAyZZInN4wUpM-37" vertex="1">
          <mxGeometry x="10" y="150" width="340" height="40" as="geometry" />
        </mxCell>
        <mxCell id="44RmBdanAyZZInN4wUpM-26" value="&lt;font data-font-src=&quot;https://fonts.googleapis.com/css?family=JetBrains+Mono&quot; face=&quot;JetBrains Mono&quot;&gt;&lt;b&gt;overpass-sprt&lt;br&gt;&lt;/b&gt;(enp2s0/ethernet)&lt;br&gt;&lt;/font&gt;" style="rounded=1;whiteSpace=wrap;html=1;labelBackgroundColor=none;" parent="44RmBdanAyZZInN4wUpM-37" vertex="1">
          <mxGeometry x="10" y="50" width="340" height="40" as="geometry" />
        </mxCell>
        <mxCell id="GhL4nBobYUIvh9j1_4Rl-98" style="edgeStyle=orthogonalEdgeStyle;shape=link;rounded=0;orthogonalLoop=1;jettySize=auto;html=1;exitX=0.5;exitY=0;exitDx=0;exitDy=0;entryX=0.5;entryY=1;entryDx=0;entryDy=0;labelBackgroundColor=none;fontColor=default;" edge="1" parent="44RmBdanAyZZInN4wUpM-37" source="GhL4nBobYUIvh9j1_4Rl-95" target="44RmBdanAyZZInN4wUpM-26">
          <mxGeometry relative="1" as="geometry" />
        </mxCell>
        <mxCell id="GhL4nBobYUIvh9j1_4Rl-95" value="&lt;font data-font-src=&quot;https://fonts.googleapis.com/css?family=JetBrains+Mono&quot; face=&quot;JetBrains Mono&quot;&gt;&lt;span style=&quot;border-color: var(--border-color);&quot;&gt;&lt;b&gt;192.168.0.200 &lt;/b&gt;(Bridge)&lt;/span&gt;&lt;/font&gt;" style="shape=parallelogram;perimeter=parallelogramPerimeter;whiteSpace=wrap;html=1;fixedSize=1;labelBackgroundColor=none;rounded=1;" vertex="1" parent="44RmBdanAyZZInN4wUpM-37">
          <mxGeometry x="40" y="110" width="280" height="20" as="geometry" />
        </mxCell>
        <mxCell id="GhL4nBobYUIvh9j1_4Rl-114" value="" style="sketch=0;pointerEvents=1;shadow=0;dashed=0;html=1;aspect=fixed;labelPosition=center;verticalLabelPosition=bottom;verticalAlign=top;align=center;outlineConnect=0;shape=mxgraph.vvd.ethernet_port;labelBackgroundColor=none;" vertex="1" parent="44RmBdanAyZZInN4wUpM-37">
          <mxGeometry x="10" y="10" width="20" height="20" as="geometry" />
        </mxCell>
        <mxCell id="44RmBdanAyZZInN4wUpM-50" style="edgeStyle=orthogonalEdgeStyle;rounded=1;orthogonalLoop=1;jettySize=auto;html=1;exitX=0;exitY=1;exitDx=0;exitDy=0;entryX=1;entryY=0.5;entryDx=0;entryDy=0;shape=link;labelBackgroundColor=none;fontColor=default;" parent="1" source="44RmBdanAyZZInN4wUpM-43" target="44RmBdanAyZZInN4wUpM-4" edge="1">
          <mxGeometry relative="1" as="geometry">
            <Array as="points">
              <mxPoint x="420" y="350" />
              <mxPoint x="420" y="350" />
            </Array>
          </mxGeometry>
        </mxCell>
        <mxCell id="GhL4nBobYUIvh9j1_4Rl-82" style="edgeStyle=orthogonalEdgeStyle;shape=link;rounded=0;orthogonalLoop=1;jettySize=auto;html=1;exitX=1;exitY=0;exitDx=0;exitDy=0;entryX=0;entryY=0.5;entryDx=0;entryDy=0;labelBackgroundColor=none;fontColor=default;" edge="1" parent="1" source="44RmBdanAyZZInN4wUpM-43" target="44RmBdanAyZZInN4wUpM-39">
          <mxGeometry relative="1" as="geometry">
            <Array as="points">
              <mxPoint x="745" y="330" />
              <mxPoint x="745" y="640" />
            </Array>
          </mxGeometry>
        </mxCell>
        <mxCell id="44RmBdanAyZZInN4wUpM-43" value="&lt;font data-font-src=&quot;https://fonts.googleapis.com/css?family=JetBrains+Mono&quot; face=&quot;JetBrains Mono&quot;&gt;&lt;b&gt;192.168.0.210&lt;/b&gt; (vnet01/tunnel)&lt;/font&gt;" style="shape=parallelogram;perimeter=parallelogramPerimeter;whiteSpace=wrap;html=1;fixedSize=1;labelBackgroundColor=none;rounded=1;" parent="1" vertex="1">
          <mxGeometry x="440" y="330" width="280" height="20" as="geometry" />
        </mxCell>
        <mxCell id="44RmBdanAyZZInN4wUpM-56" style="edgeStyle=orthogonalEdgeStyle;rounded=1;orthogonalLoop=1;jettySize=auto;html=1;exitX=0;exitY=1;exitDx=0;exitDy=0;entryX=1;entryY=0.5;entryDx=0;entryDy=0;shape=link;labelBackgroundColor=none;fontColor=default;" parent="1" source="44RmBdanAyZZInN4wUpM-45" target="44RmBdanAyZZInN4wUpM-5" edge="1">
          <mxGeometry relative="1" as="geometry">
            <Array as="points">
              <mxPoint x="410" y="380" />
              <mxPoint x="410" y="380" />
            </Array>
          </mxGeometry>
        </mxCell>
        <mxCell id="GhL4nBobYUIvh9j1_4Rl-81" style="edgeStyle=orthogonalEdgeStyle;shape=link;rounded=0;orthogonalLoop=1;jettySize=auto;html=1;exitX=1;exitY=0;exitDx=0;exitDy=0;entryX=0;entryY=0.5;entryDx=0;entryDy=0;labelBackgroundColor=none;fontColor=default;" edge="1" parent="1" source="44RmBdanAyZZInN4wUpM-45" target="44RmBdanAyZZInN4wUpM-39">
          <mxGeometry relative="1" as="geometry">
            <Array as="points">
              <mxPoint x="745" y="360" />
              <mxPoint x="745" y="640" />
            </Array>
          </mxGeometry>
        </mxCell>
        <mxCell id="44RmBdanAyZZInN4wUpM-45" value="&lt;font data-font-src=&quot;https://fonts.googleapis.com/css?family=JetBrains+Mono&quot; face=&quot;JetBrains Mono&quot;&gt;&lt;b style=&quot;border-color: var(--border-color);&quot;&gt;192.168.0.211&lt;/b&gt;&amp;nbsp;(vnet02/tunnel)&lt;/font&gt;" style="shape=parallelogram;perimeter=parallelogramPerimeter;whiteSpace=wrap;html=1;fixedSize=1;labelBackgroundColor=none;rounded=1;" parent="1" vertex="1">
          <mxGeometry x="440" y="360" width="280" height="20" as="geometry" />
        </mxCell>
        <mxCell id="44RmBdanAyZZInN4wUpM-57" style="edgeStyle=orthogonalEdgeStyle;rounded=1;orthogonalLoop=1;jettySize=auto;html=1;exitX=0;exitY=1;exitDx=0;exitDy=0;shape=link;labelBackgroundColor=none;fontColor=default;" parent="1" source="44RmBdanAyZZInN4wUpM-46" target="44RmBdanAyZZInN4wUpM-6" edge="1">
          <mxGeometry relative="1" as="geometry">
            <Array as="points">
              <mxPoint x="420" y="410" />
              <mxPoint x="420" y="410" />
            </Array>
          </mxGeometry>
        </mxCell>
        <mxCell id="GhL4nBobYUIvh9j1_4Rl-80" style="edgeStyle=orthogonalEdgeStyle;shape=link;rounded=0;orthogonalLoop=1;jettySize=auto;html=1;exitX=1;exitY=0;exitDx=0;exitDy=0;entryX=0;entryY=0.5;entryDx=0;entryDy=0;labelBackgroundColor=none;fontColor=default;" edge="1" parent="1" source="44RmBdanAyZZInN4wUpM-46" target="44RmBdanAyZZInN4wUpM-39">
          <mxGeometry relative="1" as="geometry">
            <Array as="points">
              <mxPoint x="745" y="390" />
              <mxPoint x="745" y="640" />
            </Array>
          </mxGeometry>
        </mxCell>
        <mxCell id="44RmBdanAyZZInN4wUpM-46" value="&lt;font data-font-src=&quot;https://fonts.googleapis.com/css?family=JetBrains+Mono&quot; face=&quot;JetBrains Mono&quot;&gt;&lt;b style=&quot;border-color: var(--border-color);&quot;&gt;192.168.0.212&lt;/b&gt;&amp;nbsp;(vnet03/tunnel)&lt;/font&gt;" style="shape=parallelogram;perimeter=parallelogramPerimeter;whiteSpace=wrap;html=1;fixedSize=1;labelBackgroundColor=none;rounded=1;" parent="1" vertex="1">
          <mxGeometry x="440" y="390" width="280" height="20" as="geometry" />
        </mxCell>
        <mxCell id="44RmBdanAyZZInN4wUpM-58" style="edgeStyle=orthogonalEdgeStyle;rounded=1;orthogonalLoop=1;jettySize=auto;html=1;exitX=0;exitY=1;exitDx=0;exitDy=0;entryX=1;entryY=0.5;entryDx=0;entryDy=0;shape=link;labelBackgroundColor=none;fontColor=default;" parent="1" source="44RmBdanAyZZInN4wUpM-48" target="44RmBdanAyZZInN4wUpM-7" edge="1">
          <mxGeometry relative="1" as="geometry">
            <Array as="points">
              <mxPoint x="410" y="440" />
              <mxPoint x="410" y="440" />
            </Array>
          </mxGeometry>
        </mxCell>
        <mxCell id="GhL4nBobYUIvh9j1_4Rl-79" style="edgeStyle=orthogonalEdgeStyle;shape=link;rounded=0;orthogonalLoop=1;jettySize=auto;html=1;exitX=1;exitY=0;exitDx=0;exitDy=0;entryX=0;entryY=0.5;entryDx=0;entryDy=0;labelBackgroundColor=none;fontColor=default;" edge="1" parent="1" source="44RmBdanAyZZInN4wUpM-48" target="44RmBdanAyZZInN4wUpM-39">
          <mxGeometry relative="1" as="geometry">
            <Array as="points">
              <mxPoint x="745" y="420" />
              <mxPoint x="745" y="640" />
            </Array>
          </mxGeometry>
        </mxCell>
        <mxCell id="44RmBdanAyZZInN4wUpM-48" value="&lt;font data-font-src=&quot;https://fonts.googleapis.com/css?family=JetBrains+Mono&quot; face=&quot;JetBrains Mono&quot;&gt;&lt;b style=&quot;border-color: var(--border-color);&quot;&gt;192.168.0.213&lt;/b&gt;&amp;nbsp;(vnet04/tunnel)&lt;/font&gt;" style="shape=parallelogram;perimeter=parallelogramPerimeter;whiteSpace=wrap;html=1;fixedSize=1;labelBackgroundColor=none;rounded=1;" parent="1" vertex="1">
          <mxGeometry x="440" y="420" width="280" height="20" as="geometry" />
        </mxCell>
        <mxCell id="44RmBdanAyZZInN4wUpM-59" style="edgeStyle=orthogonalEdgeStyle;rounded=1;orthogonalLoop=1;jettySize=auto;html=1;exitX=0;exitY=1;exitDx=0;exitDy=0;shape=link;labelBackgroundColor=none;fontColor=default;" parent="1" source="44RmBdanAyZZInN4wUpM-49" target="44RmBdanAyZZInN4wUpM-8" edge="1">
          <mxGeometry relative="1" as="geometry">
            <Array as="points">
              <mxPoint x="410" y="470" />
              <mxPoint x="410" y="470" />
            </Array>
          </mxGeometry>
        </mxCell>
        <mxCell id="GhL4nBobYUIvh9j1_4Rl-78" style="edgeStyle=orthogonalEdgeStyle;shape=link;rounded=0;orthogonalLoop=1;jettySize=auto;html=1;exitX=1;exitY=0;exitDx=0;exitDy=0;entryX=0;entryY=0.5;entryDx=0;entryDy=0;labelBackgroundColor=none;fontColor=default;" edge="1" parent="1" source="44RmBdanAyZZInN4wUpM-49" target="44RmBdanAyZZInN4wUpM-39">
          <mxGeometry relative="1" as="geometry">
            <Array as="points">
              <mxPoint x="745" y="450" />
              <mxPoint x="745" y="640" />
            </Array>
          </mxGeometry>
        </mxCell>
        <mxCell id="44RmBdanAyZZInN4wUpM-49" value="&lt;font data-font-src=&quot;https://fonts.googleapis.com/css?family=JetBrains+Mono&quot; face=&quot;JetBrains Mono&quot;&gt;&lt;b style=&quot;border-color: var(--border-color);&quot;&gt;192.168.0.214&lt;/b&gt;&amp;nbsp;(vnet05/tunnel)&lt;/font&gt;" style="shape=parallelogram;perimeter=parallelogramPerimeter;whiteSpace=wrap;html=1;fixedSize=1;labelBackgroundColor=none;rounded=1;" parent="1" vertex="1">
          <mxGeometry x="440" y="450" width="280" height="20" as="geometry" />
        </mxCell>
        <mxCell id="44RmBdanAyZZInN4wUpM-60" style="edgeStyle=orthogonalEdgeStyle;rounded=1;orthogonalLoop=1;jettySize=auto;html=1;exitX=0;exitY=1;exitDx=0;exitDy=0;entryX=1;entryY=0.5;entryDx=0;entryDy=0;shape=link;labelBackgroundColor=none;fontColor=default;" parent="1" source="44RmBdanAyZZInN4wUpM-51" target="44RmBdanAyZZInN4wUpM-21" edge="1">
          <mxGeometry relative="1" as="geometry">
            <Array as="points">
              <mxPoint x="420" y="520" />
              <mxPoint x="420" y="520" />
            </Array>
          </mxGeometry>
        </mxCell>
        <mxCell id="GhL4nBobYUIvh9j1_4Rl-76" style="edgeStyle=orthogonalEdgeStyle;shape=link;rounded=0;orthogonalLoop=1;jettySize=auto;html=1;exitX=1;exitY=0;exitDx=0;exitDy=0;entryX=0;entryY=0.5;entryDx=0;entryDy=0;labelBackgroundColor=none;fontColor=default;" edge="1" parent="1" source="44RmBdanAyZZInN4wUpM-51" target="44RmBdanAyZZInN4wUpM-39">
          <mxGeometry relative="1" as="geometry">
            <Array as="points">
              <mxPoint x="745" y="500" />
              <mxPoint x="745" y="640" />
            </Array>
          </mxGeometry>
        </mxCell>
        <mxCell id="44RmBdanAyZZInN4wUpM-51" value="&lt;font data-font-src=&quot;https://fonts.googleapis.com/css?family=JetBrains+Mono&quot; face=&quot;JetBrains Mono&quot;&gt;&lt;b style=&quot;border-color: var(--border-color);&quot;&gt;192.168.0.220&lt;/b&gt;&amp;nbsp;(vnet06/tunnel)&lt;/font&gt;" style="shape=parallelogram;perimeter=parallelogramPerimeter;whiteSpace=wrap;html=1;fixedSize=1;labelBackgroundColor=none;rounded=1;" parent="1" vertex="1">
          <mxGeometry x="440" y="500" width="280" height="20" as="geometry" />
        </mxCell>
        <mxCell id="44RmBdanAyZZInN4wUpM-61" style="edgeStyle=orthogonalEdgeStyle;rounded=1;orthogonalLoop=1;jettySize=auto;html=1;exitX=0;exitY=1;exitDx=0;exitDy=0;entryX=1;entryY=0.5;entryDx=0;entryDy=0;shape=link;labelBackgroundColor=none;fontColor=default;" parent="1" source="44RmBdanAyZZInN4wUpM-52" target="44RmBdanAyZZInN4wUpM-20" edge="1">
          <mxGeometry relative="1" as="geometry">
            <Array as="points">
              <mxPoint x="420" y="550" />
              <mxPoint x="420" y="550" />
            </Array>
          </mxGeometry>
        </mxCell>
        <mxCell id="GhL4nBobYUIvh9j1_4Rl-75" style="edgeStyle=orthogonalEdgeStyle;shape=link;rounded=0;orthogonalLoop=1;jettySize=auto;html=1;exitX=1;exitY=0;exitDx=0;exitDy=0;entryX=0;entryY=0.5;entryDx=0;entryDy=0;labelBackgroundColor=none;fontColor=default;" edge="1" parent="1" source="44RmBdanAyZZInN4wUpM-52" target="44RmBdanAyZZInN4wUpM-39">
          <mxGeometry relative="1" as="geometry">
            <Array as="points">
              <mxPoint x="745" y="530" />
              <mxPoint x="745" y="640" />
            </Array>
          </mxGeometry>
        </mxCell>
        <mxCell id="44RmBdanAyZZInN4wUpM-52" value="&lt;font data-font-src=&quot;https://fonts.googleapis.com/css?family=JetBrains+Mono&quot; face=&quot;JetBrains Mono&quot;&gt;&lt;b style=&quot;border-color: var(--border-color);&quot;&gt;192.168.0.221&lt;/b&gt;&amp;nbsp;(vnet07/tunnel)&lt;/font&gt;" style="shape=parallelogram;perimeter=parallelogramPerimeter;whiteSpace=wrap;html=1;fixedSize=1;labelBackgroundColor=none;rounded=1;" parent="1" vertex="1">
          <mxGeometry x="440" y="530" width="280" height="20" as="geometry" />
        </mxCell>
        <mxCell id="44RmBdanAyZZInN4wUpM-65" style="edgeStyle=orthogonalEdgeStyle;rounded=1;orthogonalLoop=1;jettySize=auto;html=1;exitX=0;exitY=1;exitDx=0;exitDy=0;entryX=1;entryY=0.5;entryDx=0;entryDy=0;shape=link;labelBackgroundColor=none;fontColor=default;" parent="1" source="44RmBdanAyZZInN4wUpM-53" target="44RmBdanAyZZInN4wUpM-22" edge="1">
          <mxGeometry relative="1" as="geometry">
            <Array as="points">
              <mxPoint x="420" y="580" />
              <mxPoint x="420" y="580" />
            </Array>
          </mxGeometry>
        </mxCell>
        <mxCell id="GhL4nBobYUIvh9j1_4Rl-74" style="edgeStyle=orthogonalEdgeStyle;shape=link;rounded=0;orthogonalLoop=1;jettySize=auto;html=1;exitX=1;exitY=0;exitDx=0;exitDy=0;entryX=0;entryY=0.5;entryDx=0;entryDy=0;labelBackgroundColor=none;fontColor=default;" edge="1" parent="1" source="44RmBdanAyZZInN4wUpM-53" target="44RmBdanAyZZInN4wUpM-39">
          <mxGeometry relative="1" as="geometry">
            <Array as="points">
              <mxPoint x="745" y="560" />
              <mxPoint x="745" y="640" />
            </Array>
          </mxGeometry>
        </mxCell>
        <mxCell id="44RmBdanAyZZInN4wUpM-53" value="&lt;font data-font-src=&quot;https://fonts.googleapis.com/css?family=JetBrains+Mono&quot; face=&quot;JetBrains Mono&quot;&gt;&lt;b style=&quot;border-color: var(--border-color);&quot;&gt;192.168.0.222&lt;/b&gt;&amp;nbsp;(vnet08/tunnel)&lt;/font&gt;" style="shape=parallelogram;perimeter=parallelogramPerimeter;whiteSpace=wrap;html=1;fixedSize=1;labelBackgroundColor=none;rounded=1;" parent="1" vertex="1">
          <mxGeometry x="440" y="560" width="280" height="20" as="geometry" />
        </mxCell>
        <mxCell id="44RmBdanAyZZInN4wUpM-66" style="edgeStyle=orthogonalEdgeStyle;rounded=1;orthogonalLoop=1;jettySize=auto;html=1;exitX=0;exitY=1;exitDx=0;exitDy=0;entryX=1;entryY=0.5;entryDx=0;entryDy=0;shape=link;labelBackgroundColor=none;fontColor=default;" parent="1" source="44RmBdanAyZZInN4wUpM-54" target="44RmBdanAyZZInN4wUpM-23" edge="1">
          <mxGeometry relative="1" as="geometry">
            <Array as="points">
              <mxPoint x="420" y="610" />
              <mxPoint x="420" y="610" />
            </Array>
          </mxGeometry>
        </mxCell>
        <mxCell id="GhL4nBobYUIvh9j1_4Rl-73" style="edgeStyle=orthogonalEdgeStyle;shape=link;rounded=0;orthogonalLoop=1;jettySize=auto;html=1;exitX=1;exitY=0;exitDx=0;exitDy=0;entryX=0;entryY=0.5;entryDx=0;entryDy=0;labelBackgroundColor=none;fontColor=default;" edge="1" parent="1" source="44RmBdanAyZZInN4wUpM-54" target="44RmBdanAyZZInN4wUpM-39">
          <mxGeometry relative="1" as="geometry">
            <Array as="points">
              <mxPoint x="745" y="590" />
              <mxPoint x="745" y="640" />
            </Array>
          </mxGeometry>
        </mxCell>
        <mxCell id="44RmBdanAyZZInN4wUpM-54" value="&lt;font data-font-src=&quot;https://fonts.googleapis.com/css?family=JetBrains+Mono&quot; face=&quot;JetBrains Mono&quot;&gt;&lt;b style=&quot;border-color: var(--border-color);&quot;&gt;192.168.0.223&lt;/b&gt;&amp;nbsp;(vnet09/tunnel)&lt;/font&gt;" style="shape=parallelogram;perimeter=parallelogramPerimeter;whiteSpace=wrap;html=1;fixedSize=1;labelBackgroundColor=none;rounded=1;" parent="1" vertex="1">
          <mxGeometry x="440" y="590" width="280" height="20" as="geometry" />
        </mxCell>
        <mxCell id="44RmBdanAyZZInN4wUpM-67" style="edgeStyle=orthogonalEdgeStyle;rounded=1;orthogonalLoop=1;jettySize=auto;html=1;exitX=0;exitY=1;exitDx=0;exitDy=0;entryX=1;entryY=0.5;entryDx=0;entryDy=0;shape=link;labelBackgroundColor=none;fontColor=default;" parent="1" source="44RmBdanAyZZInN4wUpM-55" target="44RmBdanAyZZInN4wUpM-24" edge="1">
          <mxGeometry relative="1" as="geometry">
            <Array as="points">
              <mxPoint x="420" y="640" />
              <mxPoint x="420" y="640" />
            </Array>
          </mxGeometry>
        </mxCell>
        <mxCell id="GhL4nBobYUIvh9j1_4Rl-72" style="edgeStyle=orthogonalEdgeStyle;shape=link;rounded=0;orthogonalLoop=1;jettySize=auto;html=1;exitX=1;exitY=0;exitDx=0;exitDy=0;entryX=0;entryY=0.5;entryDx=0;entryDy=0;labelBackgroundColor=none;fontColor=default;" edge="1" parent="1" source="44RmBdanAyZZInN4wUpM-55" target="44RmBdanAyZZInN4wUpM-39">
          <mxGeometry relative="1" as="geometry">
            <Array as="points">
              <mxPoint x="745" y="620" />
              <mxPoint x="745" y="640" />
            </Array>
          </mxGeometry>
        </mxCell>
        <mxCell id="44RmBdanAyZZInN4wUpM-55" value="&lt;font data-font-src=&quot;https://fonts.googleapis.com/css?family=JetBrains+Mono&quot; face=&quot;JetBrains Mono&quot;&gt;&lt;b style=&quot;border-color: var(--border-color);&quot;&gt;192.168.0.224&lt;/b&gt;&amp;nbsp;(vnet10/tunnel)&lt;/font&gt;" style="shape=parallelogram;perimeter=parallelogramPerimeter;whiteSpace=wrap;html=1;fixedSize=1;labelBackgroundColor=none;rounded=1;" parent="1" vertex="1">
          <mxGeometry x="440" y="620" width="280" height="20" as="geometry" />
        </mxCell>
        <mxCell id="GhL4nBobYUIvh9j1_4Rl-100" value="" style="edgeStyle=orthogonalEdgeStyle;shape=link;rounded=0;orthogonalLoop=1;jettySize=auto;html=1;labelBackgroundColor=none;fontColor=default;" edge="1" parent="1" source="44RmBdanAyZZInN4wUpM-127" target="44RmBdanAyZZInN4wUpM-147">
          <mxGeometry relative="1" as="geometry" />
        </mxCell>
        <mxCell id="44RmBdanAyZZInN4wUpM-127" value="&lt;font data-font-src=&quot;https://fonts.googleapis.com/css?family=JetBrains+Mono&quot; face=&quot;JetBrains Mono&quot;&gt;&lt;b&gt;Dragon Path Technologies&lt;br&gt;&lt;/b&gt;(Router)&lt;/font&gt;" style="rounded=1;whiteSpace=wrap;html=1;labelBackgroundColor=none;" parent="1" vertex="1">
          <mxGeometry x="1190" y="490" width="200" height="40" as="geometry" />
        </mxCell>
        <mxCell id="44RmBdanAyZZInN4wUpM-143" style="edgeStyle=orthogonalEdgeStyle;shape=link;rounded=1;orthogonalLoop=1;jettySize=auto;html=1;exitX=0.5;exitY=1;exitDx=0;exitDy=0;entryX=1;entryY=0.5;entryDx=0;entryDy=0;labelBackgroundColor=none;fontColor=default;" parent="1" source="44RmBdanAyZZInN4wUpM-139" target="44RmBdanAyZZInN4wUpM-27" edge="1">
          <mxGeometry relative="1" as="geometry" />
        </mxCell>
        <mxCell id="44RmBdanAyZZInN4wUpM-139" value="&lt;font data-font-src=&quot;https://fonts.googleapis.com/css?family=JetBrains+Mono&quot; face=&quot;JetBrains Mono&quot;&gt;&lt;span style=&quot;border-color: var(--border-color);&quot;&gt;&lt;b&gt;192.168.0.2&lt;/b&gt; (Ethernet)&lt;/span&gt;&lt;/font&gt;" style="shape=parallelogram;perimeter=parallelogramPerimeter;whiteSpace=wrap;html=1;fixedSize=1;labelBackgroundColor=none;rounded=1;" parent="1" vertex="1">
          <mxGeometry x="1340" y="550" width="280" height="20" as="geometry" />
        </mxCell>
        <mxCell id="44RmBdanAyZZInN4wUpM-145" style="edgeStyle=orthogonalEdgeStyle;shape=link;rounded=1;orthogonalLoop=1;jettySize=auto;html=1;exitX=0.5;exitY=1;exitDx=0;exitDy=0;entryX=1;entryY=0.5;entryDx=0;entryDy=0;labelBackgroundColor=none;fontColor=default;" parent="1" source="44RmBdanAyZZInN4wUpM-144" target="44RmBdanAyZZInN4wUpM-127" edge="1">
          <mxGeometry relative="1" as="geometry" />
        </mxCell>
        <mxCell id="44RmBdanAyZZInN4wUpM-144" value="&lt;font data-font-src=&quot;https://fonts.googleapis.com/css?family=JetBrains+Mono&quot; face=&quot;JetBrains Mono&quot;&gt;&lt;span style=&quot;border-color: var(--border-color);&quot;&gt;&lt;b&gt;192.168.0.1&lt;/b&gt; (Ethernet)&lt;/span&gt;&lt;/font&gt;" style="shape=parallelogram;perimeter=parallelogramPerimeter;whiteSpace=wrap;html=1;fixedSize=1;labelBackgroundColor=none;rounded=1;" parent="1" vertex="1">
          <mxGeometry x="1340" y="450" width="280" height="20" as="geometry" />
        </mxCell>
        <mxCell id="44RmBdanAyZZInN4wUpM-147" value="&lt;font face=&quot;JetBrains Mono&quot;&gt;&lt;b&gt;Wide Area Network&lt;br&gt;&lt;/b&gt;(AirTel Xstream)&lt;/font&gt;" style="rounded=1;whiteSpace=wrap;html=1;labelBackgroundColor=none;" parent="1" vertex="1">
          <mxGeometry x="1190" y="390" width="200" height="40" as="geometry" />
        </mxCell>
        <mxCell id="44RmBdanAyZZInN4wUpM-171" value="&lt;font data-font-src=&quot;https://fonts.googleapis.com/css?family=JetBrains+Mono&quot; face=&quot;JetBrains Mono&quot;&gt;&lt;b&gt;Internal DHCP server&lt;/b&gt;&lt;/font&gt;" style="shape=hexagon;perimeter=hexagonPerimeter2;whiteSpace=wrap;html=1;fixedSize=1;size=10;labelBackgroundColor=none;rounded=1;" parent="1" vertex="1">
          <mxGeometry x="1190" y="650" width="200" height="20" as="geometry" />
        </mxCell>
        <mxCell id="GhL4nBobYUIvh9j1_4Rl-46" value="&lt;font data-font-src=&quot;https://fonts.googleapis.com/css?family=JetBrains+Mono&quot; face=&quot;JetBrains Mono&quot;&gt;Intel Corporation WiFi 6 AX200&amp;nbsp;&lt;br&gt;&lt;span style=&quot;font-weight: normal;&quot;&gt;(Network Interface Device)&lt;/span&gt;&lt;/font&gt;" style="swimlane;whiteSpace=wrap;html=1;startSize=40;labelBackgroundColor=none;rounded=1;" vertex="1" parent="1">
          <mxGeometry x="770" y="170" width="360" height="140" as="geometry" />
        </mxCell>
        <mxCell id="GhL4nBobYUIvh9j1_4Rl-50" style="edgeStyle=orthogonalEdgeStyle;shape=link;rounded=0;orthogonalLoop=1;jettySize=auto;html=1;exitX=0.5;exitY=0;exitDx=0;exitDy=0;entryX=0.5;entryY=1;entryDx=0;entryDy=0;labelBackgroundColor=none;fontColor=default;" edge="1" parent="GhL4nBobYUIvh9j1_4Rl-46" source="GhL4nBobYUIvh9j1_4Rl-51" target="GhL4nBobYUIvh9j1_4Rl-52">
          <mxGeometry relative="1" as="geometry" />
        </mxCell>
        <mxCell id="GhL4nBobYUIvh9j1_4Rl-51" value="&lt;font data-font-src=&quot;https://fonts.googleapis.com/css?family=JetBrains+Mono&quot; face=&quot;JetBrains Mono&quot;&gt;&lt;b style=&quot;&quot;&gt;192.168.0.110&amp;nbsp;&lt;/b&gt;(Wi-Fi)&lt;/font&gt;" style="shape=parallelogram;perimeter=parallelogramPerimeter;whiteSpace=wrap;html=1;fixedSize=1;labelBackgroundColor=none;rounded=1;" vertex="1" parent="GhL4nBobYUIvh9j1_4Rl-46">
          <mxGeometry x="10" y="110" width="340" height="20" as="geometry" />
        </mxCell>
        <mxCell id="GhL4nBobYUIvh9j1_4Rl-52" value="&lt;font data-font-src=&quot;https://fonts.googleapis.com/css?family=JetBrains+Mono&quot; face=&quot;JetBrains Mono&quot;&gt;&lt;b&gt;wlp2s0&lt;br&gt;&lt;/b&gt;(Wireless Fidelity)&lt;br&gt;&lt;/font&gt;" style="rounded=1;whiteSpace=wrap;html=1;labelBackgroundColor=none;" vertex="1" parent="GhL4nBobYUIvh9j1_4Rl-46">
          <mxGeometry x="10" y="50" width="340" height="40" as="geometry" />
        </mxCell>
        <mxCell id="GhL4nBobYUIvh9j1_4Rl-113" style="edgeStyle=orthogonalEdgeStyle;shape=link;rounded=0;orthogonalLoop=1;jettySize=auto;html=1;exitX=0;exitY=0;exitDx=0;exitDy=0;entryX=0;entryY=0.25;entryDx=0;entryDy=0;labelBackgroundColor=none;fontColor=default;" edge="1" parent="GhL4nBobYUIvh9j1_4Rl-46">
          <mxGeometry relative="1" as="geometry">
            <mxPoint x="12.92893218813424" y="12.928932188134468" as="sourcePoint" />
            <mxPoint x="11.055728090000684" y="15.527864045000342" as="targetPoint" />
          </mxGeometry>
        </mxCell>
        <mxCell id="GhL4nBobYUIvh9j1_4Rl-112" value="" style="html=1;verticalLabelPosition=bottom;align=center;labelBackgroundColor=none;verticalAlign=top;strokeWidth=2;shadow=0;dashed=0;shape=mxgraph.ios7.icons.wifi;pointerEvents=1;" vertex="1" parent="GhL4nBobYUIvh9j1_4Rl-46">
          <mxGeometry x="10" y="10" width="20" height="20" as="geometry" />
        </mxCell>
        <mxCell id="GhL4nBobYUIvh9j1_4Rl-89" style="edgeStyle=orthogonalEdgeStyle;shape=link;rounded=0;orthogonalLoop=1;jettySize=auto;html=1;exitX=0;exitY=1;exitDx=0;exitDy=0;entryX=1.008;entryY=0.05;entryDx=0;entryDy=0;entryPerimeter=0;labelBackgroundColor=none;fontColor=default;" edge="1" parent="1" source="GhL4nBobYUIvh9j1_4Rl-51" target="44RmBdanAyZZInN4wUpM-1">
          <mxGeometry relative="1" as="geometry">
            <Array as="points">
              <mxPoint x="590" y="300" />
            </Array>
          </mxGeometry>
        </mxCell>
        <mxCell id="GhL4nBobYUIvh9j1_4Rl-107" style="edgeStyle=orthogonalEdgeStyle;shape=link;rounded=0;orthogonalLoop=1;jettySize=auto;html=1;entryX=0;entryY=0.5;entryDx=0;entryDy=0;labelBackgroundColor=none;fontColor=default;" edge="1" parent="1" source="44RmBdanAyZZInN4wUpM-26" target="44RmBdanAyZZInN4wUpM-27">
          <mxGeometry relative="1" as="geometry" />
        </mxCell>
        <mxCell id="GhL4nBobYUIvh9j1_4Rl-108" style="edgeStyle=orthogonalEdgeStyle;shape=link;rounded=0;orthogonalLoop=1;jettySize=auto;html=1;exitX=1;exitY=0.5;exitDx=0;exitDy=0;entryX=0;entryY=0.5;entryDx=0;entryDy=0;labelBackgroundColor=none;fontColor=default;" edge="1" parent="1" source="GhL4nBobYUIvh9j1_4Rl-52" target="44RmBdanAyZZInN4wUpM-27">
          <mxGeometry relative="1" as="geometry" />
        </mxCell>
        <mxCell id="GhL4nBobYUIvh9j1_4Rl-109" value="" style="group;labelBackgroundColor=none;" vertex="1" connectable="0" parent="1">
          <mxGeometry x="1190" y="140" width="430" height="130" as="geometry" />
        </mxCell>
        <mxCell id="44RmBdanAyZZInN4wUpM-153" value="" style="rounded=1;whiteSpace=wrap;html=1;labelBackgroundColor=none;" parent="GhL4nBobYUIvh9j1_4Rl-109" vertex="1">
          <mxGeometry width="430" height="130" as="geometry" />
        </mxCell>
        <mxCell id="44RmBdanAyZZInN4wUpM-149" value="&lt;h1 style=&quot;&quot;&gt;&lt;font data-font-src=&quot;https://fonts.googleapis.com/css?family=JetBrains+Mono&quot; face=&quot;JetBrains Mono&quot;&gt;Network Diagram A&lt;/font&gt;&lt;/h1&gt;&lt;p style=&quot;&quot;&gt;&lt;font data-font-src=&quot;https://fonts.googleapis.com/css?family=JetBrains+Mono&quot; face=&quot;JetBrains Mono&quot;&gt;This diagram demonstrates the entities (both baremetal and virtual) involved in the network and how they are connected to each other with the use of a variety of network interface devices&lt;/font&gt;&lt;/p&gt;" style="text;html=1;strokeColor=none;fillColor=none;spacing=5;spacingTop=-20;whiteSpace=wrap;overflow=hidden;rounded=1;align=right;labelBackgroundColor=none;" parent="GhL4nBobYUIvh9j1_4Rl-109" vertex="1">
          <mxGeometry x="10" y="10" width="410" height="110" as="geometry" />
        </mxCell>
        <mxCell id="GhL4nBobYUIvh9j1_4Rl-111" value="" style="group;labelBackgroundColor=none;" vertex="1" connectable="0" parent="1">
          <mxGeometry x="40" y="140" width="690" height="120" as="geometry" />
        </mxCell>
        <mxCell id="44RmBdanAyZZInN4wUpM-151" value="" style="rounded=1;whiteSpace=wrap;html=1;labelBackgroundColor=none;" parent="GhL4nBobYUIvh9j1_4Rl-111" vertex="1">
          <mxGeometry width="690" height="120" as="geometry" />
        </mxCell>
        <mxCell id="44RmBdanAyZZInN4wUpM-150" value="&lt;h1 style=&quot;text-align: justify;&quot;&gt;&lt;font face=&quot;JetBrains Mono&quot;&gt;System Specifications&lt;/font&gt;&lt;/h1&gt;&lt;p style=&quot;text-align: justify;&quot;&gt;&lt;font data-font-src=&quot;https://fonts.googleapis.com/css?family=JetBrains+Mono&quot; face=&quot;JetBrains Mono&quot;&gt;ASUS Mini PC PN51-S1 / AMD Ryzen 7 5700U APU /&amp;nbsp;48 GiB DDR4 3200MHz Dual Channel SODIMM RAM&lt;br&gt;Intel Corporation WiFi 6 AX200 and&amp;nbsp;Realtek RTL8111 or 8168 or 8411 Gigabit Ethernet&amp;nbsp;&lt;/font&gt;&lt;span style=&quot;background-color: initial;&quot;&gt;&lt;font data-font-src=&quot;https://fonts.googleapis.com/css?family=JetBrains+Mono&quot; face=&quot;JetBrains Mono&quot;&gt;&lt;br&gt;512 GiB NVMe PCIe 3.0 SSD host storage and&amp;nbsp;1TB Intr HDD 5600RPM / 2TB Extr HDD 5600RPM&lt;/font&gt;&lt;br&gt;&lt;/span&gt;&lt;/p&gt;" style="text;html=1;strokeColor=none;fillColor=none;spacing=5;spacingTop=-20;whiteSpace=wrap;overflow=hidden;rounded=1;align=left;labelBackgroundColor=none;" parent="GhL4nBobYUIvh9j1_4Rl-111" vertex="1">
          <mxGeometry x="10.370000000000019" y="10" width="669.27" height="100" as="geometry" />
        </mxCell>
      </root>
    </mxGraphModel>
  </diagram>
</mxfile>
